<?xml version="1.0" encoding="UTF-8"?>
<svg id="Layer_1" data-name="Layer 1" xmlns="http://www.w3.org/2000/svg" version="1.1" viewBox="0 0 512 512">
  <defs>
    <style>
      .cls-1 {
        fill: #7f7f7f;
        stroke-width: 0px;
      }
    </style>
  </defs>
  <path class="cls-1" d="M447.6,175c-31.6-74.6-105.5-127-191.6-127s-43.4,3.5-63.4,9.8c-.4,2-.6,4.1-.6,6.2v73.4c0,12.5,10.1,22.6,22.6,22.6s11.8-2.4,16-6.6l16-16c6-6,14.1-9.4,22.6-9.4h5.5c28.5,0,42.8,34.5,22.6,54.6-6,6-14.1,9.4-22.6,9.4h-61.5c-8.5,0-16.6,3.4-22.6,9.4l-21.3,21.3c-6,6-9.4,14.1-9.4,22.6v42.7c0,17.7,14.3,32,32,32h32c17.7,0,32,14.3,32,32v32c0,17.7,14.3,32,32,32h2.7c8.5,0,16.6-3.4,22.6-9.4l29.3-29.3c6-6,9.4-14.1,9.4-22.6v-18.7c0-8.8,7.2-16,16-16s16-7.2,16-16v-34.7c0-8.5-3.4-16.6-9.4-22.6l-16-16c-4.2-4.2-6.6-10-6.6-16,0-12.5,10.1-22.6,22.6-22.6h45c12.4,0,22.7-7.1,28-17h0ZM0,256C0,114.6,114.6,0,256,0s256,114.6,256,256-114.6,256-256,256S0,397.4,0,256Z"/>
</svg>